# xmcd
#
# Track frame offsets:
#   150
#   19672
#   37147
#   57973
#   71861
#   86433
#   105730
#   118778
#   133340
#   148848
#   167016
#   179592
#   191296
#   203586
#   222798
#   235405
#   247636
#   261028
#   275992
#   288963
#
# Disc length: 4061 seconds
#
# Revision: 0
# Processed by: cddbd v1.5.1PL0 Copyright (c) Steve Scherf et al.
# Submitted via: Media_Universe 3.0
#
DISCID=330fdb14
DTITLE=Reba McEntire - For My Broken Heart and Feel The Fire
DYEAR=1900
DGENRE=Country
TTITLE0=For My Broken Heart
TTITLE1=Is There Life Out There
TTITLE2=Baby
TTITLE3=He's In Dallas
TTITLE4=All Dressed Up(with nowhere to go)
TTITLE5=The Night The Lights Went Out In Georgia
TTITLE6=Buying Her Roses
TTITLE7=The Greatest Man I Ever Knew
TTITLE8=I Wouldnt Go That Far
TTITLE9=If I Had Only Know
TTITLE10=(You Lifted Me Up To Heaven
TTITLE11=Tears On My Pillow
TTITLE12=I Dont Think Love Ought To Be That Way
TTITLE13=Long Distance Lover
TTITLE14=If I Had It My Way
TTITLE15=I Can See Forever In Your Eyes
TTITLE16=A Poor Man's Roses (or a rich mans gold)
TTITLE17=My Turn
TTITLE18=Look At The One (who's been looking at you)
TTITLE19=Suddenly There's A Valley
EXTD=
EXTT0=
EXTT1=
EXTT2=
EXTT3=
EXTT4=
EXTT5=
EXTT6=
EXTT7=
EXTT8=
EXTT9=
EXTT10=
EXTT11=
EXTT12=
EXTT13=
EXTT14=
EXTT15=
EXTT16=
EXTT17=
EXTT18=
EXTT19=
PLAYORDER=
